<mxfile host="app.diagrams.net" modified="2024-02-04T17:15:54.834Z" agent="Mozilla/5.0 (Windows NT 10.0; Win64; x64) AppleWebKit/537.36 (KHTML, like Gecko) Chrome/121.0.0.0 Safari/537.36" etag="FooTtQyO8955siX7WdG7" version="23.1.1" type="device">
  <diagram name="Page-1" id="oZa6I48NOGfa4HAnxN1u">
    <mxGraphModel dx="1985" dy="1135" grid="1" gridSize="10" guides="1" tooltips="1" connect="1" arrows="1" fold="1" page="1" pageScale="1" pageWidth="2339" pageHeight="3300" math="0" shadow="0">
      <root>
        <mxCell id="0" />
        <mxCell id="1" parent="0" />
        <mxCell id="wzNTi9JDQ-c7Y0qpO4sE-7" style="edgeStyle=orthogonalEdgeStyle;rounded=0;orthogonalLoop=1;jettySize=auto;html=1;exitX=1;exitY=0.5;exitDx=0;exitDy=0;entryX=0;entryY=0.5;entryDx=0;entryDy=0;" parent="1" target="wzNTi9JDQ-c7Y0qpO4sE-6" edge="1">
          <mxGeometry relative="1" as="geometry">
            <mxPoint x="480" y="460" as="sourcePoint" />
          </mxGeometry>
        </mxCell>
        <mxCell id="wzNTi9JDQ-c7Y0qpO4sE-17" style="edgeStyle=orthogonalEdgeStyle;rounded=0;orthogonalLoop=1;jettySize=auto;html=1;exitX=1;exitY=0.5;exitDx=0;exitDy=0;shadow=0;" parent="1" source="wzNTi9JDQ-c7Y0qpO4sE-6" target="wzNTi9JDQ-c7Y0qpO4sE-15" edge="1">
          <mxGeometry relative="1" as="geometry" />
        </mxCell>
        <mxCell id="wzNTi9JDQ-c7Y0qpO4sE-40" style="edgeStyle=orthogonalEdgeStyle;rounded=0;orthogonalLoop=1;jettySize=auto;html=1;exitX=0.5;exitY=1;exitDx=0;exitDy=0;entryX=0.5;entryY=0;entryDx=0;entryDy=0;sketch=1;curveFitting=1;jiggle=2;" parent="1" source="wzNTi9JDQ-c7Y0qpO4sE-6" target="wzNTi9JDQ-c7Y0qpO4sE-28" edge="1">
          <mxGeometry relative="1" as="geometry" />
        </mxCell>
        <mxCell id="wzNTi9JDQ-c7Y0qpO4sE-6" value="Single Llama Index Document" style="rounded=0;whiteSpace=wrap;html=1;" parent="1" vertex="1">
          <mxGeometry x="700" y="410" width="100" height="100" as="geometry" />
        </mxCell>
        <mxCell id="wzNTi9JDQ-c7Y0qpO4sE-9" value="Pass the additional informations about the URL&amp;nbsp; as metadatas.&lt;br&gt;Two important metadatas are &lt;b&gt;group_id &lt;/b&gt;and &lt;b&gt;media_id. &lt;/b&gt;Here, media id is simply the source URL&lt;b&gt;&amp;nbsp;&lt;/b&gt;" style="text;html=1;strokeColor=none;fillColor=none;align=center;verticalAlign=middle;whiteSpace=wrap;rounded=0;" parent="1" vertex="1">
          <mxGeometry x="500" y="465" width="190" height="35" as="geometry" />
        </mxCell>
        <mxCell id="wzNTi9JDQ-c7Y0qpO4sE-15" value="" style="image;aspect=fixed;html=1;points=[];align=center;fontSize=12;image=img/lib/azure2/general/Files.svg;" parent="1" vertex="1">
          <mxGeometry x="890" y="270" width="82.29" height="90" as="geometry" />
        </mxCell>
        <mxCell id="wzNTi9JDQ-c7Y0qpO4sE-18" value="Split the document into granular nodes ie. sentences. using SentenceWIndowNodeParser.&lt;br&gt;Neigbouring sentences are stored in &quot;windows&quot; key of metadata" style="text;html=1;strokeColor=none;fillColor=none;align=center;verticalAlign=middle;whiteSpace=wrap;rounded=0;" parent="1" vertex="1">
          <mxGeometry x="827.29" y="400" width="207.71" height="30" as="geometry" />
        </mxCell>
        <mxCell id="wzNTi9JDQ-c7Y0qpO4sE-20" value="" style="shape=image;imageAspect=0;aspect=fixed;verticalLabelPosition=bottom;verticalAlign=top;image=data:image/png,iVBORw0KGgoAAAANSUhEUgAAARgAAAEYCAYAAACHjumMAAAtVklEQVR4nOzdd3xb9b0+8OfIsjzkIVu2vGJbdrxH4sSJHTuDDCeQpAl7Ni1kwL2lEJpCodAW6C3QltJLIYX2V1YLhBYoZSYUshNnO8Mr3kveQ7ZsSbYlSzq/l0TMDTTLtqSvjvR5v176pyTnPE2cR9+zPkfM8zwIOV9DqybkpffLnhSbzPcCEF/Bb6lVxgdtuffW3B1OiEcEhKOCIePKq5pl+06qf9zaMfQjAIET/f3BAT6f582IeiYtO7Q4NjjYMSGJoFDBEHSp9eIPv6x9qLFV8zMOCJjq9nieP7juuqz1M1MVDfZJSISKCsbDvaYaCK9759Q2i0i03J7b5cH3TI8Nve+aAtn7SqXSnpsmAkIF46EaVP2SnYda7mto1TzOAY48ntlftCBhy4pC5WkH7oO4KCoYD9Pdp5fsLG7477Ja9cMAYpy0W4tM6vPO6qKkp2amKmqctE/iAqhgPETHwAg+/uLsbU2qoWcBxDILwnPvfn9t6n1Z6VF9zDIQp6GC8QANKo3fh7tqX+7p09/FOss5dUXzlXeumJ9whHUQ4lhUMG5s18HK7DN1+vXdfbp1HLhw1nm+hQfPH0ybIX/9hgWpf5cF+hpZByL2RwXjhpqb1aIPdtc/060efoR1livCo+TqAuUdyxYl1LGOQuyLCsbNPFbctNB0uOl5gMtlnWVCeBhUcbIXXlie8mREmHSEdRxiH1QwbqK5uYf75+7mX/ao9b9gnWUqeOBI0cK4715dML2JdRYydVQwAlda0x1TVtX7/bKang0cxyWxzmMPPGCMlPt/OiM14vW8GVH/Dg7ysbDORCaHCkbAnn/1+L2d/fo/APBmncVROAs+u+eOnDunx4X0s85CJo4KRoB2HmpM3HlI9TzAr2WdxTl4dWJsyBPXrkj6U5Q8kFYzAkIFIyBl1T3xn+2pfFSjw8YrHKPgVjjecLxofuqvs9MU2yPDpGOs85DLo4IRgAbVgPzVbSefMnl53c0BXqzzsMc3JMTJH15028x/ZbKOQi6JCsbFvfVJxZqy6t63HPxAoiAp5NI/31CUvDkxPoRWMy6KCsZFWVctL/2z/EnxmPkH4GjVcgm1yvjAh+69dc6nrIOQ/0QF42IqqnpC9pe0PtjSObR5MlPlPFVwgM+/586MeiY9K/QgTdNzHVQwLqJRpfH78lDTlsbWgUcBbspT5TwWzx8pWpD4wIr5yhOsoxAqGJfwh0ON+R2Hmt8BuETWWdyEJUIuffzGZYqnaZoeW1QwDNW3Dkh2FTc/0NiqeRKAP+s8bofn9y+fn/Dj5QsSTrGO4qmoYBhoaR+Mef+Lmvt7+vTfBxDFOo+bs4gs2LNq2fSnF82N28c6jKehgnGimg4tt29f3Xcb2gb/AEDOOo+n4WF5b+W82IeXLkppYZ3FU1DBOElZdU/SW59U/o0DClln8XDD2anh//29a7PeYh3EE1DBONiugxUzSmuH7+pS6zZy4IJY5yHn8PyBtBny11fNTXo/Mkw6zDqOu6KCcZCymu6Itz45+zLH4wbWWcil8OqcZMUdd1yf9SXrJO6ICsYBHituWmQ63PQGXXYWCB5jqjjZ808vUD49PTZkiHUcd0IFY0elNb3h2z4u3wpwt7LOQiaOB7pmpYSvu+O6rN2ss7gLKhg7KKvuiSmt6V1fVt39Q47jIlnnIZPHA6ZIuf8nM1IjXpuRGv5FRLjUzDqTkFHBTEFXn1767JsnnxGbzPd64nwWD1C1okB5R9HChDOsgwgVFcwkfXm4OXXnwcZ3OI6bzToLcSRemxgb8vDy+YmvTI8LptXMBFHBTND+E63zduwufYwXSVfSqsWjqDIy5L+9Zt70V2ia3pWjgrlCr6kGwuu3nXza7OW1EYCIdR7CBg++KSU65CfJ62Z9sJh1GAGggrmM7j6d+MOddZsbWzWPg6bKkXN4YO/31mbeNSNNoWKdxZVRwVxCg2pA/pd3St7kReJVrLMQV8R3KeOD7qFpehdHBXMBB0+oUo+XdT3crdbfAoCGP5FL4oHSRXNin8nPinpPoZCyjuNSqGDO06DS+O20TZXT/AKAL+s8RHCOLi+M37x8QSJN0zuHCgZAT08PPv6y/aa6joHf0u39ZIosFpHlrbtWT9+Sla4cYB2GNY8umJ4eLVda17f4WFnnY0NaQxHrPMSttGWnhr8wK0XxZla6ood1GFY8tmBKq3vS3v644k2O4+ayzkLcmsErJfwHv74u6w3WQVjwuIKp6dByew/Ur2tUaZ6nqXLEWTief2/poviHry6Y7lHT9DyqYHYeasr/8lDz8xxQwDoL8UjDibGy565fnvJMRJjUwDqMM3hEwew62DTjWHnnY4M6A41RIMzxQHV6duizq+cmvRcRJtWzzuNIbl0wOw81Ju4sbnkeHNayzuIOZANqBA0NQhVPF9rsg1cnxoU+fn1Ryp8jwvwtrNM4gtsWzKMfVWw01/a+DEDCOovg8TyS66tQeGQffAyjaEpIxtG8RdAG0ZMT9iCy6D+85475dyXGud80PbcqGM3QqO+n+xrXlVV3beTAzWOdR+g4i8VWLLPOHINsUPON/2YWiVCVmo0zOXnQB9ArtO1gMELu/48VhQnPZacr6lmHsRe3KZhdxU3pXxxq/gfHYQbrLO4gpq0FBcf2Q97fd8lfZ+FEqEyfgZO5hTD40s3PdqBPjJU9sXxB/IvTY0MFPxZC8AXT0KoJeen9sidpqpx9+A3rsfDQbiQ0T+xLdNTHF3sWX4PWODo/Yye1ydHSLXevy9vBOshUCLpg3vy44pqKmt636X4W+4jqaMXiA18gSDu5UwHW1Ux5Zg5O5RbAKPGxez5PpAjz33pDUcqWxLgQQU7TE1zBaLQGr+OlHWt2F1du4EXSVQC8WGcSujhVA2afPg5FTyc4O2zP6C1BWdZslGfPhtGHDpvsoC0k0ueNO4oyX4qPDu5mHWYiBFUwr6kGwuveObXNIhItZ53FHcgG1Jh/ZC+mtTtmZpK1aE7NykN5Vi4sXvQ9MFU8+J7psaH3pt2eI5hpeoIomAZVv2TnoZb7Glo1j3M0VW7KxGNG5J0oRubZUoic8Pc/FBiMncu+g77wCIfvyxPw4Pcvn5+wecX8hDLWWS7HpQumu08v2Vnc8N9lteqHAcSwziN0EoPBdtl5RlkJgnTOveXC5OWFhsRUVKdmoSsyBuDscTDm0SyyAMm21cuSn56ZqqhhHeZiXLJgenr0+GBP9W1NqqFnAcSyzuMOEhtrsHj/l/A2sb/yWZuUjgMLl8Mspot+dsFz735/bep9WelRl76ngAGXK5gGlcbvw121L/f06e9incUd+I4M2w6H0moq7HIC11500gAczb/KtqpxqWDCVVc0X3nnivkJR1gHOZ/LFExzczN2Fg/QVDk74SwWZFecQu6po5CMGVnHuaiOyBjsu+oaeuzAPizg+W0Li6Y9tiY3pY11GLhCwfT0aLljFd23HShp/RkHZDIN4wa8TCYoWxqQU3ocYepe1nGuiEEiQXVqNqrTsqGRhbKO4w5G4qOD/rwoN/bZ7HRFF8sgTAvmseKmhabDTc8DXC6zEG4ksrMVy/Z+jgC9jnWUSbH+JJ7OycOJOfPpJLA98DCo4mQvvLA85cmIMOkIiwhMCqamQ8t9+nnVL3vU+p+DjsCnTGwas10Zmn36OLwsgrzh8xt6wiNxuGAxuiOiWUdxCzxwpGhh3HevLpje5Ox9O71gvixuzt95qPFFjuPynLpjd8R/dXVo3vGDCHTyZWdHs/5U1iWl24rG4OvHOo7g8cDI9FjZ71fMT/hNYpzMaUOunFYwn+2uW3GgpO1n4LDIKTt0ZzyPmA4VZp0+hphOlziX5zB6/wCUZ+WgLjkTw/70UjM76FdGBj13w6q0rZFhUocfSzu8YGiqnH3JBvqwdO+/Ea72rDdhmEVeOFS4BFXpNI3DPnh1YmzIE9euSPpTlDzQYdP0HFowNFXOjngeKXVnUXh0H3wMHjEv+j9Yf1K/mqa3ENogGes4bmHM2/Th/TfOXZ8YJxt0xPbtXjBdffqAnYdbbi+t7togoqlyU+YzOoKMqjKk1lYgeMghPwOCYxaJ0BKXaJum1xseyTqOOxhUhPm/m5OseD11YcIxe946b9eCefujijVltb1vWlfydtuoB4ttbcKigzsFe9nZ0Swch6q0GTgxp5BOBNuJQu7/yg1FKT9MjA+xyzMldikY21S598p+KTbbpsrRc/lT5K/XYWHxLihVjayjCIJB4oM9i1fS2w7shm9QxgdtuffWOZ9OdUtTLpjDp7vmfX6gfrvBMEa3YNpBTJsKVx38AoE6LesogmJdzVRm5qAkt5Cm6dmBtReam5u2vf+njeumsp0pP84aKpOGzclOCu3XaNHa2QedfnSqm/Q4XqYxpNRVIa2mHIpeQQ0scxkinkd2xWmk1FbaHqAsnTEHQ8EhrGMJjtFoRFNTE1SqFuh0urSpbm/KBcNxHC8ScQgLDYI8JBAd3QNQtffCZBb+HaXOENrfh6V7tkM+oGYdxS34GI3IqC63FXZJ7jyapjcB3d09OH36JEZG7PdUgV0HcnAch5jIUCjCgtHS1oPOngF7bt6t+IyOYM7Jw7YrRM6YKudpxGYT5h0vRkZVOQ7PW4wW5XTWkVyWXq9HRXk5Ojo77L5th0z88RZ7IUkZBUWYDG2dfbAePtG/oa/4GEZtzw1Zl/OuMPzJ3QVpB3HNzo/ROi0ep3LyaZreeYaHh1FbU4PmlmY46n44h44UCwrwQ0ZyLEZGjahpaIdWz+SBTpcgMpsxs6wEs84cp2JhILatxfbpDo/CniUrMRTsuXdSmExjKC8vtxULHPzFL3Ls5r/i5ytBdlq87fCJ88BvD79hPVb++1/IKzlE5cJYRG8nrv/4HSQ21MATl9VarRYHDhywDXhzdLnAmW9C9PISITEuEpGKEDS2dGFg0GkPdDJjXbVkV5zC7NPHXHqqnKfxNYxi+Z7t6Dh7BkcKFqMvzP3fdmA0GlFdXYXGxkaHHQ5diNOnLvv7+iArNd52Xqa1ow9DOvc7bPIymZBRVYqc0hPwHxlmHYdcRHRXO274cBvqp6fZBl0NhIaxjmR3RuMY6uvr0NBQD5PJ5PT9MxvrHioLtH0GtcOobWzHqMENDh143vZakLwTxXR7v0BYD9iTG6qR1FBte5CyeP4yjPj5s441ZRaLxVYs1dU1MJudXyzjmL83IjjQHzkZCahv7kTfgHDvXhWbxrDw4C6k1FexjkImwVo0iU11COvrsZ0EFvI0PYPBgBMnTqC3l/1ID+YFY+XtLUZ6ciz0IwZ092rQ1TsAs9lhIyrsKlTdi9TaStvKxW/U/Q73PE2QdhDXfvIPW8FUp2bZDp+E8P4mnuehVvehpaUF7e3tMLvIja4u9Scn9fNBYlwEoiNCUdPQ5tLnZzjegrxjB5FTfpJ1FGJn1tVMZHeH7ZNZeQZ7lq5y6bcdWA+BTp06hbY215tu6FIFM87Xxxsz05Xo7R9CfUsXTCbXaONxUR2ttpfGy/td7kV6xM7C1T246YO3UJGZg5I5hTCJvVlH+pp11WItlcrKCrve3m9PLlkwNhyHcHkwAqR+qGlsh9YFVjMcz2PuiUO2dw553t08nsvLYsbM8pOI6mrDrqWrXWKanvUQ6MyZ01CpVKyjXJLrFsw5fr4S22pmSDeMrl4NetVDTr2OD9t8Fi3SaiqRUldJU+U8mKK3G7e991e0xCWgJjULqrgE8JxT7lX92tDQEFpamtHa2mo7mevqXL5gcO4hyuBAqe0THRGK6oZ2jI4658a1zIrTtjm49EAigW0shAUJLQ22T2tMvO2K06gTLmtbv1TPVlaitq7W4fuyJ0EUzPkCpX7IzUpER1c/Wjp6YbE45h9+sGbAVixxrU5/VxURiNj2Ftz23hs4ObvAdo6GFzlmNdPX14fy8jJoNBqHbN+RBFcwViKRCNOiw2zzZ9q61LaTwfa6rB2oHcSs08dtQ7Zp1UIux8dosH0RJdedtd0N3BI/3W7zZ6yFUlNbg472drtsjwVBFsw4Pz8fJCdEIyE2Ai3tvejo7p/0tnxHhm134KbVVIJzxlNgxK2Eq3uwYvdn0EkDcDT/KttUvcleCdDpdCgrK0V3t/CnGwq6YMaJxV6YHh8JWbAUtQ0dE56mp2yuw5L9X0BipAcSydQE6HUo2rMd09paULxgKcxeE/sn1tjYaCsXFu+MdwS3KJhxclkg5sxMuuJpeuNT5TKrymyXoAmxl7TaCkR3tuJo/iI0KZMuO+TKkVPlWHKrgsF50/QiwmS2IeQXmqZnmypXWoLsSpoqRxwnSDuIFbs+RVtMnG2aXmfUtP8oGmdMlWPJ7QpmXOB50/SaWruhHtDapvfPKD9FU+WIU01rV9k+PeGROFyw2Pack9FoQNXZKjQ1N7llsYxz24IZ5+crsRXNwNlaZL/6mu1bhRAWFL1dtgcpP0nPwasaPcbG3P9Lzrm3ITIUYzFQuUyRWSTCmAs9iyNE1gMk38Z6jygXeMIKZpwnzgK2J500ALuWfgcDoXLkHz2A9JoKupxPLstjCoZMjlnkhVM5eSidOffruSgHFy3H2cyZWLZ7O0IG6d1X5OI85hCJTJzePwCfrboRp3IL/mPoklquwEfX3oGa5Axax5CLohUM+QZrWbTHxNmmuTUrky55o5jRxwf7Fl+DU7PybVP9MqpK4SuAJ3yJ81DBkK8ZvSXYd9UKNCWkTOj3DQWH4MTcBTibMROL939huyRLCKhgCM6tWmpSMnF87gKM+EsnvR29NBDbV92EOFUjFh3cCemw+7/7ilwanYPxcGPe3ti9dBX2X3X1lMrlfKq4RHx07e1oj4q1y/aIcNEKxkP1yhWoSc20Tc03+PrZffu6gCB8tvomhPd2Ia2mwvbWBW8GL/4ibFHBeBgLJ8KReYtQkTXb8TvjOPQqomyfyowcLN33OQ1K9zBUMB6kNSYeRwquwkCI81+R2i8PxwfXr0NGVRnyTxyEt4fcyerpqGDcHA+gRxGJ0zn5tmlrTLOIRKjMzLENzZ5ZdtL2ulZfwyjTTMSxqGDcmDo0HIfnXYWOmDjWUb5BFxiMQ/OX4njeAswsPYGc0hPwsgjjTZ5kYqhg3FRp9mwcy1vksEHU9jDmLUHJnPnoiIrFsr074D8yzDoSsTPX/ekjkzIgC7Xd3n903mKXLpfzWVdY/7hlA87MmAMLPZTqVmgF4yYGg2S2qfa1KRlOfxmYPYxJJDiWvwh1SWmYVXoCCc318HKRF7iTyaOCEbhhP38cy1uI2uSMy859FYJ+uQK7l66Gv16HeccPIqm+il7TK2BUMALWkJCMfVddDZO3hHUUuxuWBtjemtg6LR6LDu6C2Ew36QkRFYzAmEUiNCak2N6N3B4d6xarlkupS86AKjYBKXVnkV1+CoF6LetIZAKoYARkfKpcd2Q06yhOZfD1Q3l2rm2ExLyjB5BeW0GvmREIKhgBMInFOD1zLkpnzP2PwU+eZEzi8/U0vfmH9iKqW7ivVPUUnvvTKhCdEdG2k576gEDWUVyGWq7AJ2tuRU7pcdvrft37IFHYqGBc0PlT5RoTksGL7PMydbfCAWdy8tCYmILUmgrbM0702IHroYJxPeZdK9ZyjfFJwruZhYGhINlX0/TSZ1qKPv9wNFLT5886E/k/9EPsYixiMQKuKRJJJNT9V4rngZPt7aLtY2Yf1lnIN9FPsasRibyCA/0xd0Yy1BotWjv6oB+mpf+FjI2Nobm5Cc3NzdDpdMgE6FjSxVDBuCiRiEN4aBDCQgLR3tUPVUcvzGZ64nhcX28vSk6exAg9IOnSqGBcHMdxmBYlhyIsGKq2HnT2alhHYkqv16OiohwdHR2so5ArQAUjEBJvMZISoiELDkBtU4dHrmZaWlpw5sxpWGh2jGBQwQhMWGgQZEFS9KgH0d6lxqjBvUdPms1mtLW1ormlBf1qNes4ZIKoYARILPZCdEQoIsJkaG7vQWd3P9zxznmtTosTx49jcHCQdRQySVQwAublJcL0uEhEhYegUdWNgUEd60h2YTSOoaamGg0N9eDdsTk9CBWMG/D380FWahz6NVqo2vug1Y+wjjQpY0Yj6urr0djYYLsETYSPCsaNhMoCbZ9B7TBqG9sFc37GYrGgvqEeNdXVMNHL2dwK3cnrhoID/ZGTkQB5SBDrKJdlNBpx5MhhVFZUULm4IVrBuClvbzEykqdBM6RHY0sX9CMG1pG+wbpqaWxsRFVVFUwmYay0yMRRwbg5WZAUs7ISbZe1Wzv6MDJqZJrHWixNTY2ora3F6Cg9AuHuqGA8AMdxtkvaCnkwevuH0NDSBZPJuRP7eR5ob29DZWUFhofp9n5PQQXjQaxFYy2ZQKkfqhvaoXPS1Saz2YzS0jO2O3GJZ6GC8UB+vhLkZCgxpB1GV6/GtqpxxP0mQ0NDaGlpRmtrKwwG1zoHRJyDCsZDWVczwUFS2yc6IhTVje0YtdP5GWtZnT1baTvPQjwbFQxBYIAfcrOmo6NLjZaOXlgsk1/N9PX1obyiHJqBAbtmJMJEBUNsRCIO06LDEBToj5pJ3KRnXbVUV1WhuqbaYRmJ8FDBkG+wFkxudpLtsYOuPg0GNJd+vmlkdASqFhVUqhbbVDlCzkcFQ/6DdTUTFhpk+6g1WtQ2dlzwsnZjYyPKykrpgURyUVQw5JLkskDMmZGElrYedPZ8dV5Fr9OjvLIcnTRVjlwGFQy5LG+xF5KUUVCEyfD5l/txvOQkrVrIFaGHHckVCwrww+ionsqFXDEqGEKIw1DBEEIchgqGEOIwVDCEEIehgiGEOAwVDCHEYahgCCEOQwVDCHEYKhhCiMNQwRBCHIYKhhDiMFQwhBCHoYIhhDgMFQwhxGGoYAghDkMFQwhxGCoYQojDUMEQQhyGCoYQ4jBUMIQQh6GCIYQ4DBWMi+HGxhBUUsI6huDIzSYsMAyzjkG+hQrGxXA8j9j/9xdE//VvEA8NsY4jCLONI/jDYCfSTAbWUci30IvXXJC1ZEKLDyH02HH0LVuKvhXLYQoKYh3L5RQY9Lh9ZBApJiPrKOQiqGBcmMg0hogvdiJ8z170Li9C9+pV4CUS1rGYSzQZ8V/6fswcG2UdhVwGFYwAiEwmRH3+b8gPH0Hz3RuhT0lhHYkJP96CTfoBrBzV0rG9QNDfk4BIhrRI+cNWRH3yqe1ksCeJNY3hfzWdWE3lIii0ghEYzmxGzI5/I3LvAXReXYSepUtgcePDpsyxUdw2rEHu2CgViwBRwQiUeGQEcR9/hmk790C1djV6Fi0EOI51LLsJsZixQd+PIoMe7vP/yvNQwQic98gIkt79AFEHDqF2/fcxMi2GdaQp8eJ53DgyaLs65MfzrOOQKaKCcRMBXd2Y9dwf0JM3B12F+dAplawjTYiE51Fo0OPWkUEkmD3r/JI7o4JxI14mE2IOH8e0o8fRkTcHtXfcAoi8WMe6rJnGETys64PcYmYdhdgZFYwb4gDEnjgFeUMTaq5bg/6Z2awjXZAvb8Etw4O4ZWSQfhDdFP29urGAgUHM+evb6EtKROXtN8MQGso60jk8lo7qsX54AOG0anFrVDAeQNHQjNDntkJVmI/WubMxEqFgkkPE88g5d9l5Bj035BGoYDyEz6gBqfuKkbL3IKqWLULDqqudun+lyYhHtL10AtfDUMF4GI7jkLHnIMLqG3B27WpolfEO3Z911bLCoMMmfT8C6LKzx6GC8VAKVQfC//gX9CrjUFe0BP1p9n2+KchixndGtVg+qkOUxWTXbRPhoILxYBw4KJpboXj1b2hLT0HV2lUYDQ+f8nbzjMN4QKemy86ECobAVjXTquoQVf0izty4Bh3z8ia1FbnZhB/p1Jg7NmL3hESY6Pkx8jUvnkfu+x8j54234aPun9DvHZ8qR+VCzkcrGPJNHIfYympEn61GV0Ya6ooWQxs77YK/1Ie3YJlBh2tGdTRVjlwQFQy5IC8eiKmsRlRlNRrnzUHt6qth9vP7+r8nmox4WNsLJV12JpdABUMuyXoMnXS0BLGnSnHye7fCz2LB/To1TZUjV4QKhlwRH+MY5r32Nh87MmgyGke8WechwuAxX0KmwCCYAgJYxxA0EcBJeJ7KhVwxjykYQ1wc6n77LHrWXuvWIyYJcSUeUzBWvESCvjVr0PCrp6BPSmYdhxC351EFM24sNBQtDz6ItrvvgS49A/SEDCGO4bknecViDOXl2T6BJ08i+q9vwGuUXuRFiD155Arm27S5uah/6mkMLFgA3o0m8xPCGhXMOebgYHTeeReaHvsZDBGRrOMQ4haoYL5lVKlE489/js7bbsdobCzrOIQIGhXMBfC+vhhYtgyNjz+BrltvBS+iPyZCJoP+5VxGf9FyND7+OHTp6ayjECI4nnsVaQIMMdOg+vGD8G1uRtj27Qg6c5p1JEIEgVYwEzCqVKLthz9E84MPYXTahUcYEEL+DxXMJAynpaHxF4+jb8UK1lEIcWlUMJMlEqHn5lvQ8qMfwRAdzToNIS6JzsFMkT4zCw1PZEBaWYnwHdvhX1/POhIhLoMKxh5EIuizs6HPykLwkSNQ/Otf8B7UsE5FCHN0iGRPHIfBwkI0PPUUBnPnsE5DCHO0gnEAi68v2v/rv6CpXgRZcTECT52CyEQvHyOehwrGUTgO+vQM20c8OIiYv/wF0toa1qkIcSo6RHICU3AwVFu20DQ94nGoYJyEF4tpmh7xOFQwTvaNaXoZGTR/hrg1OgfDwnnT9HxaWzHt1Vfg09HBOhUhdkcrGMYMsbFoeuSnNE2PuKWpFwyPPgBDdknjoSz+/rZpevVPPY3e1au/8YpWcmUsAHpFXqxjkG+ZcsGkJgQcK8gJiddqJL8HQDd7TMGYQoHe665H/ZNPQJ+awjqOYGg5EZ4MUuBjvyDWUci32OUQKUwm0dxxXchDUeGStQDU9timJxuTy9H0k4fQ8oP/ordRXoJ11fKpbyA2hMTguMSfdRxyAXY9BzMnM+TzgpyQZIOX91ZazUzd4Oxc1D32CPQJCayjuBwdJ8JTgeF4KUAOLR0auSy7X0UKk0kGbloYurm9Z+S3TW3Djw4Mme4GQHeXTZIxPBz1jz4CaV095IcOIfR4CUQWC+tYTPAAasUSfOETgP0+AdDTrGSX57C/oRiFX/uC2fL7khL8U8Hjn47aj6fQJydBddedqH3kIYyGyVnHcboxAFuloXhAFo0dfkFULgLh8L+l9PjA5jVLIm6OCvOxrmSMjt6fuxuOj0fFL59A6/VrYRF7xm1MxyR++IEsxlYsRFic9hM6J0v2amf36KftfYY7O3tGN4BDqrP27Xa8vNB19QoM5MxEzM49CC85BfHYGOtUdmU9HDor9sHf/YNRQidwBcup68yoCN/uOZnBzy6cFZEe6Of1+LmfIzJJhogINK67HSXP/A/aF813mxv1asUS/Dg4Eg/KoqhcBI7JgaxMBn5xftivUpTSAgDHWWRwJ2Z/PzTfejMq79mAMV8f1nEmzfpt865fEB4IjkKVty/rOMQOmJ4pS1UGHMvNjZgnlYp/RWuZqRvIzsLxJx5Da0G+4P44G70keCQ4Em9IQ91mJUZc4GHH6EDw0XPlj3f0jPy9plG/Xjtq+j4HLoJ1LqEyBQag/vZb0F2Qj4Qvd0NRXevSD5ypvLzxrl8w9vhIqVjcEPOCGRet8KuKVvg9rNYYflFWq31JN2zeyDqTkGmV8Si7ZwP8unuQ+sl2RFfVsY70Db0iL7zuH4K9PgEA9YrbcrkvN7nMx5CpDNsUEiy5mQffyDqP0I1EKHDm7vUov3YVXOX2vD0SKTaFxGCvL5WLu3OZFcz5FArrJ+Sfao1xe1mt9mXdsOku1pmErvWqBVCnJCHzo88Q2dAEFv+y+zkRXpOGYLe1WKhZPILLrWDOJ5dJRubmyNenxvkvCJR6vc6D17HOJGTDUZE48YNNOHrXd6GOjXHaTQIDnBf+n38I7gyNxW7fQCoXD+KSK5jzBUiAlMTAQ9aPWmN8uLik902RWLyKdS4h683KsH1C6uqR+dF2hHT3OmQ/wxyHv/sF40O/YJjoBK5HcukVzLfJZRL10nkR18pl3g8CGGSdR+gGkpNQ/NBm1M7Pt/tq5ozYFxtDpuF9fxmViwdz+RXMtwUGiE2FOaH/q9WbXi2tHtwyMDT2I3CcjHUuweI41Fy/Bm35cxB3/CTij52E9yQfO7AAKPH2wxe+ATgi8YeFisXjCWoFc75AqXhoQa78lwWzQhPOTdOjBymnQB8dharrvoP9W+6FOiZqwr9/fKrc48EROOQjpXIhNoItmHHj0/SSlYHZPM+fZp1H6EYU4Ti85YcoufV6jEgvPxvYTFPlyCUIvmDGpSn9axfnhS2kaXr20Tk3F3t+/jBaM9Mu+msavbxxnyyapsqRi3KbgrEKkor1Ny0M3Tw7I0gpC/J+iQ6bpsbi7Y0z69fh0D13QZWTBTPH2c4F14gleFEqxxZZFJrENKyQXJzgTvJeiRiFX3uMwu++qhbtc/WNw78Dh5tYZxKy/pQk26dpQQv2ffAJ3u6jC3jkyrjVCubbxqfppSilV4FHC+s8QjekjEd5VDTrGERA3LpgxqUqAw4smB0yMyrc9xHwqGGdhxBP4REFYxUSLBkcn6Ynl4lvp/c3EeJ4HlMw42Qy8IU58n/kZgTPo2l6hDiWxxXMuGiFb31ubsQ8ucz7+7SaIcQxPLZgcG6aXmFO6FsLZoXMDPT1+i3Ad7LORIg78eiCGRcSLGlfPC/sp4U5IQmhwd4PAxhmnYkQd0AFcx65zMcwf1bo74L9A5bRND1Cpo4K5gIW5UmPLpkblp4SL72B40UnWOchRKioYC4iUCo2piYEfLh4rqxALvPezIPvZ52JEKGhgrmMgABvc2FO6Nb5OaEpZuPYS+ceICaEXAEqmCskl0nU162Ydl9UmM9NNE2PkCtDBTNBc7JkHy2eK4+LDPf9AQ/etV42RIiLoYKZhECpeGhuZvCfl8wNy9FqJM/RWAhCLowKZgoCpeLhO64L+UmyMjAbPD5jnYcQV0MFYwdpSv/aNUsi1sTHBqzkef4g6zyEuAoqGDuaMV3677VLIhelKgMWAqhnnYcQ1qhgHCBFKS2enRlUyPN411lvTyTEFVHBOEhMuF/v2iURt6UkSK/iwZ9inYcQFqhgHCxVGXBg6ZywOQnT/Nbx4KtZ5yHEmahgnCAgQMxnJQVtm6GMTJeHiG8B4JiXQRPiYqhgnEipBApnyt/PzQgq5IHDrPMQ4mhUMAxEK/zqF+ZHzE+O918UIBX/lQdvYJ2JEEeggmEkxA9ISwg8uGSufH1KgnQ+6LED4mJ4nu+b6jaoYFxAWnzgycKZ8iz5V9P06EHKyeLppgA7GcqblfzI2y9tXjvVDVHBuAh5iLexcFbo7wpnhqRyPL+LdR4B0oi8DY+B5ytYBxEyjuN3b7p5RvK2lzc/Oy83ZcrP2Lnlq2OFTB4i6V5WEL5S1Tmypr7ZsNHCma4BQG+Wv7ju6YmKv/36p+temJWd0DHa0PLb4e3Fi7Tv7/qJqatvNetwAmEyik1fPHjnmtdvWVP4cWSEzG4zjziep1WlKyup7F/d2Tv2N2v3sM5i9bd3PkBpeRXrGDZJCZGvPPHgzfdd7Ju2/8V3Fg1s/fuvARQ6P93FfeETgOcDw1jHOIc/c//GVbdt3rTKIW88pUMkFzcnM3R7QU5IssHLe6v1m4Z1HhfRnD879abnfnbdPZdaxoduvuPA9Fe2zpfmZt8EoMO5EV3emIQTb92x7WcLHVUuoBWMsNQ069Jrm3TvguOyWWVgvIIZyZ+V/PTmTat+nzc7aXQiv1H7+aGonvt/8yI43OS4eFeG9QqGB0o3373yu5s3rKp09L7oHIyApCoDquKi/PIqa7Xf6+wb3QCOm8c6kzPwgC45IfK966/L+909tyyf1OMWgSvndwbWf3qzbkdxmuZXb24x9HXeBUBi/7Sui+f5oyuLcl5/bPONb0cpQkacsU9awQjY53s1m0yc4SVn/kNx+grGLNrx1p/v+9682cl2fatD3x//ETP0/LaneRHWOfskurNXMDzQPCPJb/2/3np2n9N2eg6dgxGwlUtkr6bFSdMBfMI6i/3xA3mzkh7a8e5P19q7XKzC7rutPbHh07tC7r99FoCT9t6+q+DAffLHZ9YXsCgX0ArGfdQ1jc5s6dQ+OmK03OrI/Th6BcPzfO3Kopzfb964+t3khCin3HRo6uyTDP3y+Rv79p5c52XxvtrRKxonrGD4yPDg96+9Me9XD925lul9QVQwbqamWZtf2zy8FcBcR2zfgQVjGB5qf2HfZy89mZwQ5ZTzAxfS8cCvF49sP/wmOMQ6ah+OLBie549t3rRqy+ZNq444ZAcTRIdIbiZVGXgsPyMgXyoV/0owN87zKNm86TvZ7ZX/eoRluVhFv/Dovuh3nkn1zc/6KQANyywTpMnLTbrz71sfKnCVcgGtYNxbbZNuYXWL7nkOXK69tmnnFczYiI/xpb1vPPmz5ISoYXtt1F5GjpWH9N78P6+O+YzeYM/tOmAFU/LCU+vXrVo222H3s0wWXaZ2YykJAQejwnzmdqhHl6o6Rh8bNVqWss6Er5bxnSuXzf7jyiUz/7qqKNdlb4Dzy88eiDn6p5s0H+xcqN9RvG6sXnU7gADWucZFKmS7b1pT8MzKopl7U5QxLrlSoBWMh+jpAeraNTf3DxqeBaCc7HamuoLhwb/3x/+554fXLJ8x5VEAzqbbUZzW/cBvXgW4+VPZjh1WMM35s1MfevTeJR9kZmZOZTsORysYD6FQWD+y99Ua42dltdqXdcOmu5y5fx5ovn/jNese2LT6kDP3a08BqxZUB/j/cUHra6+sNR4pfRocl+XkCCP5s5Oe2bxh1XN5uckTupOZFVrBeCCdEeho087vUBs2DOlNt3DgrnjZP4kVzNlrlua8tv72Ja/Nzkp0m1k3Y7Uq0eA/v7xN88bHP+aACZ3jmugKxh53MrNCBePh1BqjvLik902RWLzqSn79BAqmJ3926r2bbs76YPHixVPO6cr6b7jnqv7yjtc4cNOv5NdPqGDMoh1v/+m+7+Xn2v9mQ2egy9QeTi6TqJfOi7hWLvN+0H7T9PiDLz61ofDtl+5z+3KxCv3XX/aH//GhuWaR5RX7PfE+fifzI2uFWi6ggiFWgQFiU2FO6P8W5IQkw8LvnOx2ePB9eTnTv/vKqz9YtHLZrAb7pnRtwVcvHkip2X6P7P7bZwD4dAqbsvAi8ytvv/RA+raXH/h9ckK03YY/sUCHSOQbRgxmL1XHyJrSs4YNflLTym9fCLjwIRLfkRw37W9P//zWrbOyEzqdm9g1aV7/6KqhX27bMiYZXfnth1Evcog0Zhju3/HkTzf+ZsPtS486NawDUcGQi6puHk6pa9L+HRxmj/9v3ywYXp83K/mJzZtWvpg/O2WMXVLXNfiHd5Tql995g+e5r48V/6NgeJRsvvs7d9y/8Wq3e7PE/w8AAP//+b0H173oPuEAAAAASUVORK5CYII=;" parent="1" vertex="1">
          <mxGeometry x="1140" y="260" width="100" height="100" as="geometry" />
        </mxCell>
        <mxCell id="wzNTi9JDQ-c7Y0qpO4sE-26" value="" style="endArrow=classic;html=1;rounded=0;entryX=0;entryY=0.5;entryDx=0;entryDy=0;" parent="1" source="wzNTi9JDQ-c7Y0qpO4sE-15" target="wzNTi9JDQ-c7Y0qpO4sE-20" edge="1">
          <mxGeometry width="50" height="50" relative="1" as="geometry">
            <mxPoint x="990" y="310" as="sourcePoint" />
            <mxPoint x="1040" y="260" as="targetPoint" />
          </mxGeometry>
        </mxCell>
        <mxCell id="wzNTi9JDQ-c7Y0qpO4sE-27" value="Index all these nodes to Qdrant Cloud Instance" style="text;html=1;strokeColor=none;fillColor=none;align=center;verticalAlign=middle;whiteSpace=wrap;rounded=0;" parent="1" vertex="1">
          <mxGeometry x="990" y="270" width="120" height="30" as="geometry" />
        </mxCell>
        <mxCell id="wzNTi9JDQ-c7Y0qpO4sE-28" value="" style="rounded=0;whiteSpace=wrap;html=1;" parent="1" vertex="1">
          <mxGeometry x="690" y="630" width="120" height="160" as="geometry" />
        </mxCell>
        <mxCell id="wzNTi9JDQ-c7Y0qpO4sE-30" value="&lt;b&gt;&lt;font style=&quot;font-size: 22px;&quot;&gt;Llama Index&lt;/font&gt;&lt;/b&gt;" style="text;html=1;strokeColor=none;fillColor=none;align=center;verticalAlign=middle;whiteSpace=wrap;rounded=0;" parent="1" vertex="1">
          <mxGeometry x="240" y="200" width="230" height="30" as="geometry" />
        </mxCell>
        <mxCell id="wzNTi9JDQ-c7Y0qpO4sE-31" value="Chunk" style="rounded=1;whiteSpace=wrap;html=1;fillColor=#b1ddf0;strokeColor=#10739e;" parent="1" vertex="1">
          <mxGeometry x="700" y="640" width="40" height="40" as="geometry" />
        </mxCell>
        <mxCell id="wzNTi9JDQ-c7Y0qpO4sE-33" value="Chunk" style="rounded=1;whiteSpace=wrap;html=1;fillColor=#b1ddf0;strokeColor=#10739e;" parent="1" vertex="1">
          <mxGeometry x="750" y="640" width="40" height="40" as="geometry" />
        </mxCell>
        <mxCell id="wzNTi9JDQ-c7Y0qpO4sE-34" value="Chunk" style="rounded=1;whiteSpace=wrap;html=1;fillColor=#b1ddf0;strokeColor=#10739e;" parent="1" vertex="1">
          <mxGeometry x="700" y="690" width="40" height="40" as="geometry" />
        </mxCell>
        <mxCell id="wzNTi9JDQ-c7Y0qpO4sE-35" value="Chunk" style="rounded=1;whiteSpace=wrap;html=1;fillColor=#b1ddf0;strokeColor=#10739e;" parent="1" vertex="1">
          <mxGeometry x="750" y="690" width="40" height="40" as="geometry" />
        </mxCell>
        <mxCell id="wzNTi9JDQ-c7Y0qpO4sE-36" value="Chunk" style="rounded=1;whiteSpace=wrap;html=1;fillColor=#b1ddf0;strokeColor=#10739e;" parent="1" vertex="1">
          <mxGeometry x="700" y="740" width="40" height="40" as="geometry" />
        </mxCell>
        <mxCell id="wzNTi9JDQ-c7Y0qpO4sE-38" value="Chunk" style="rounded=1;whiteSpace=wrap;html=1;fillColor=#b1ddf0;strokeColor=#10739e;" parent="1" vertex="1">
          <mxGeometry x="750" y="740" width="40" height="40" as="geometry" />
        </mxCell>
        <mxCell id="wzNTi9JDQ-c7Y0qpO4sE-41" value="Split the first few characters, say 3000 of the text content into chunks using Langchain RecursiveCharacterTextSplitter&amp;nbsp;" style="text;html=1;strokeColor=none;fillColor=none;align=center;verticalAlign=middle;whiteSpace=wrap;rounded=0;" parent="1" vertex="1">
          <mxGeometry x="630" y="560" width="240" height="30" as="geometry" />
        </mxCell>
        <mxCell id="wzNTi9JDQ-c7Y0qpO4sE-43" value="" style="shape=image;html=1;verticalAlign=top;verticalLabelPosition=bottom;labelBackgroundColor=#ffffff;imageAspect=0;aspect=fixed;image=https://cdn1.iconfinder.com/data/icons/hawcons/32/699044-icon-55-document-text-128.png" parent="1" vertex="1">
          <mxGeometry x="1490" y="645" width="100" height="100" as="geometry" />
        </mxCell>
        <mxCell id="wzNTi9JDQ-c7Y0qpO4sE-46" value="" style="edgeStyle=orthogonalEdgeStyle;rounded=0;orthogonalLoop=1;jettySize=auto;html=1;exitX=0.5;exitY=1;exitDx=0;exitDy=0;entryX=0.5;entryY=0;entryDx=0;entryDy=0;sketch=1;curveFitting=1;jiggle=2;" parent="1" source="wzNTi9JDQ-c7Y0qpO4sE-28" target="wzNTi9JDQ-c7Y0qpO4sE-48" edge="1">
          <mxGeometry relative="1" as="geometry">
            <mxPoint x="750" y="790" as="sourcePoint" />
            <mxPoint x="750.0000000000002" y="820" as="targetPoint" />
            <Array as="points">
              <mxPoint x="750" y="830" />
            </Array>
          </mxGeometry>
        </mxCell>
        <mxCell id="wzNTi9JDQ-c7Y0qpO4sE-48" value="" style="rounded=1;whiteSpace=wrap;html=1;glass=0;dashed=1;" parent="1" vertex="1">
          <mxGeometry x="617.65" y="850" width="262.71" height="120" as="geometry" />
        </mxCell>
        <mxCell id="wzNTi9JDQ-c7Y0qpO4sE-49" value="" style="rounded=1;whiteSpace=wrap;html=1;dashed=1;" parent="1" vertex="1">
          <mxGeometry x="627.65" y="860" width="262.71" height="120" as="geometry" />
        </mxCell>
        <mxCell id="wzNTi9JDQ-c7Y0qpO4sE-56" style="edgeStyle=orthogonalEdgeStyle;rounded=0;orthogonalLoop=1;jettySize=auto;html=1;exitX=1;exitY=0.5;exitDx=0;exitDy=0;curved=1;" parent="1" source="wzNTi9JDQ-c7Y0qpO4sE-50" target="wzNTi9JDQ-c7Y0qpO4sE-55" edge="1">
          <mxGeometry relative="1" as="geometry">
            <mxPoint x="1027" y="950" as="sourcePoint" />
            <Array as="points">
              <mxPoint x="1184" y="930" />
            </Array>
          </mxGeometry>
        </mxCell>
        <mxCell id="wzNTi9JDQ-c7Y0qpO4sE-50" value="" style="rounded=1;whiteSpace=wrap;html=1;dashed=1;" parent="1" vertex="1">
          <mxGeometry x="637.65" y="870" width="272.71" height="120" as="geometry" />
        </mxCell>
        <mxCell id="wzNTi9JDQ-c7Y0qpO4sE-53" style="edgeStyle=orthogonalEdgeStyle;rounded=0;orthogonalLoop=1;jettySize=auto;html=1;exitX=1;exitY=0.5;exitDx=0;exitDy=0;entryX=0;entryY=0.5;entryDx=0;entryDy=0;" parent="1" source="wzNTi9JDQ-c7Y0qpO4sE-51" target="wzNTi9JDQ-c7Y0qpO4sE-52" edge="1">
          <mxGeometry relative="1" as="geometry" />
        </mxCell>
        <mxCell id="wzNTi9JDQ-c7Y0qpO4sE-51" value="&lt;div style=&quot;text-align: left;&quot;&gt;&lt;b style=&quot;background-color: initial;&quot;&gt;Prompt&lt;/b&gt;&lt;/div&gt;&lt;i&gt;&lt;div style=&quot;text-align: left;&quot;&gt;&lt;i style=&quot;background-color: initial;&quot;&gt;Identify the main themes from the following list of documents&lt;/i&gt;&lt;/div&gt;&lt;/i&gt;" style="rounded=0;whiteSpace=wrap;html=1;" parent="1" vertex="1">
          <mxGeometry x="650" y="900" width="130" height="70" as="geometry" />
        </mxCell>
        <mxCell id="wzNTi9JDQ-c7Y0qpO4sE-52" value="LLM" style="rounded=0;whiteSpace=wrap;html=1;" parent="1" vertex="1">
          <mxGeometry x="810.36" y="905" width="70" height="60" as="geometry" />
        </mxCell>
        <mxCell id="wzNTi9JDQ-c7Y0qpO4sE-55" value="" style="sketch=0;outlineConnect=0;fontColor=#232F3E;gradientColor=none;fillColor=#232F3D;strokeColor=none;dashed=0;verticalLabelPosition=bottom;verticalAlign=top;align=center;html=1;fontSize=12;fontStyle=0;aspect=fixed;pointerEvents=1;shape=mxgraph.aws4.documents;" parent="1" vertex="1">
          <mxGeometry x="1146" y="800" width="64" height="78" as="geometry" />
        </mxCell>
        <mxCell id="wzNTi9JDQ-c7Y0qpO4sE-57" value="&lt;font style=&quot;font-size: 17px;&quot;&gt;&lt;b&gt;List of summaries&lt;/b&gt;&lt;/font&gt;" style="text;html=1;strokeColor=none;fillColor=none;align=center;verticalAlign=middle;whiteSpace=wrap;rounded=0;" parent="1" vertex="1">
          <mxGeometry x="1150" y="920" width="90" height="30" as="geometry" />
        </mxCell>
        <mxCell id="wzNTi9JDQ-c7Y0qpO4sE-66" style="edgeStyle=orthogonalEdgeStyle;rounded=0;orthogonalLoop=1;jettySize=auto;html=1;exitX=1;exitY=0.5;exitDx=0;exitDy=0;entryX=0;entryY=0.5;entryDx=0;entryDy=0;" parent="1" source="wzNTi9JDQ-c7Y0qpO4sE-58" target="wzNTi9JDQ-c7Y0qpO4sE-43" edge="1">
          <mxGeometry relative="1" as="geometry" />
        </mxCell>
        <mxCell id="wzNTi9JDQ-c7Y0qpO4sE-58" value="" style="rounded=1;whiteSpace=wrap;html=1;dashed=1;" parent="1" vertex="1">
          <mxGeometry x="1052.6399999999999" y="640" width="327.36" height="110" as="geometry" />
        </mxCell>
        <mxCell id="wzNTi9JDQ-c7Y0qpO4sE-61" style="edgeStyle=orthogonalEdgeStyle;rounded=0;orthogonalLoop=1;jettySize=auto;html=1;exitX=1;exitY=0.5;exitDx=0;exitDy=0;" parent="1" source="wzNTi9JDQ-c7Y0qpO4sE-59" target="wzNTi9JDQ-c7Y0qpO4sE-60" edge="1">
          <mxGeometry relative="1" as="geometry" />
        </mxCell>
        <mxCell id="wzNTi9JDQ-c7Y0qpO4sE-59" value="&lt;b&gt;Prompt&lt;/b&gt;&lt;br&gt;&lt;i&gt;Generate a final, consolidated summary from the summary list&lt;/i&gt;" style="rounded=0;whiteSpace=wrap;html=1;align=left;" parent="1" vertex="1">
          <mxGeometry x="1062.6399999999999" y="660" width="140" height="70" as="geometry" />
        </mxCell>
        <mxCell id="wzNTi9JDQ-c7Y0qpO4sE-60" value="LLM" style="rounded=0;whiteSpace=wrap;html=1;" parent="1" vertex="1">
          <mxGeometry x="1262.64" y="665" width="80" height="60" as="geometry" />
        </mxCell>
        <mxCell id="wzNTi9JDQ-c7Y0qpO4sE-62" style="edgeStyle=orthogonalEdgeStyle;rounded=0;orthogonalLoop=1;jettySize=auto;html=1;entryX=0.386;entryY=0.986;entryDx=0;entryDy=0;entryPerimeter=0;shadow=0;" parent="1" source="wzNTi9JDQ-c7Y0qpO4sE-55" target="wzNTi9JDQ-c7Y0qpO4sE-58" edge="1">
          <mxGeometry relative="1" as="geometry" />
        </mxCell>
        <mxCell id="wzNTi9JDQ-c7Y0qpO4sE-64" value="&lt;font style=&quot;font-size: 19px;&quot;&gt;&lt;b&gt;Final Summary&lt;/b&gt;&lt;/font&gt;" style="text;html=1;strokeColor=none;fillColor=none;align=center;verticalAlign=middle;whiteSpace=wrap;rounded=0;" parent="1" vertex="1">
          <mxGeometry x="1456.5" y="750" width="167" height="30" as="geometry" />
        </mxCell>
        <mxCell id="wzNTi9JDQ-c7Y0qpO4sE-68" value="" style="rounded=0;whiteSpace=wrap;html=1;fillColor=none;strokeColor=#006600;" parent="1" vertex="1">
          <mxGeometry x="210" y="170" width="1100" height="350" as="geometry" />
        </mxCell>
        <mxCell id="wzNTi9JDQ-c7Y0qpO4sE-69" value="" style="rounded=0;whiteSpace=wrap;html=1;fillColor=none;strokeColor=#994C00;" parent="1" vertex="1">
          <mxGeometry x="273.5" y="530" width="1350" height="530" as="geometry" />
        </mxCell>
        <mxCell id="wzNTi9JDQ-c7Y0qpO4sE-70" value="&lt;b&gt;&lt;font style=&quot;font-size: 25px;&quot;&gt;Langchain&lt;/font&gt;&lt;/b&gt;" style="text;html=1;strokeColor=none;fillColor=none;align=center;verticalAlign=middle;whiteSpace=wrap;rounded=0;" parent="1" vertex="1">
          <mxGeometry x="340" y="1000" width="60" height="30" as="geometry" />
        </mxCell>
        <mxCell id="wzNTi9JDQ-c7Y0qpO4sE-72" value="&lt;b&gt;&lt;font style=&quot;font-size: 43px;&quot;&gt;&lt;u&gt;URL Processing Pipeline&lt;/u&gt;&lt;/font&gt;&lt;/b&gt;" style="text;html=1;strokeColor=none;fillColor=none;align=center;verticalAlign=middle;whiteSpace=wrap;rounded=0;" parent="1" vertex="1">
          <mxGeometry x="576.14" y="90" width="710" height="30" as="geometry" />
        </mxCell>
        <mxCell id="NzlAdsuT_xbkyMuST5Ot-7" style="edgeStyle=orthogonalEdgeStyle;rounded=0;orthogonalLoop=1;jettySize=auto;html=1;entryX=0;entryY=0.5;entryDx=0;entryDy=0;" edge="1" parent="1" source="NzlAdsuT_xbkyMuST5Ot-1" target="NzlAdsuT_xbkyMuST5Ot-6">
          <mxGeometry relative="1" as="geometry" />
        </mxCell>
        <mxCell id="NzlAdsuT_xbkyMuST5Ot-1" value="&lt;i&gt;&lt;b&gt;&lt;font style=&quot;font-size: 20px;&quot;&gt;Source URl&lt;/font&gt;&lt;/b&gt;&lt;/i&gt;" style="text;html=1;strokeColor=none;fillColor=none;align=center;verticalAlign=middle;whiteSpace=wrap;rounded=0;" vertex="1" parent="1">
          <mxGeometry x="10" y="435" width="170" height="30" as="geometry" />
        </mxCell>
        <mxCell id="NzlAdsuT_xbkyMuST5Ot-6" value="URL text content" style="rounded=0;whiteSpace=wrap;html=1;" vertex="1" parent="1">
          <mxGeometry x="363.5" y="390" width="106.5" height="120" as="geometry" />
        </mxCell>
        <mxCell id="NzlAdsuT_xbkyMuST5Ot-8" value="Extract the text content of the URL using &lt;b&gt;&lt;font color=&quot;#cc0000&quot;&gt;Trafilatura&lt;/font&gt;&lt;/b&gt;" style="text;html=1;strokeColor=none;fillColor=none;align=center;verticalAlign=middle;whiteSpace=wrap;rounded=0;" vertex="1" parent="1">
          <mxGeometry x="210" y="390" width="110" height="75" as="geometry" />
        </mxCell>
        <mxCell id="NzlAdsuT_xbkyMuST5Ot-9" value="Create an Llama Index Document using the extracted text content&lt;br&gt;" style="text;html=1;strokeColor=none;fillColor=none;align=center;verticalAlign=middle;whiteSpace=wrap;rounded=0;" vertex="1" parent="1">
          <mxGeometry x="500" y="410" width="200" height="30" as="geometry" />
        </mxCell>
      </root>
    </mxGraphModel>
  </diagram>
</mxfile>
